<?xml version="1.0" encoding="UTF-8"?>
<svg width="15px" height="15px" viewBox="0 0 15 15" version="1.1" xmlns="http://www.w3.org/2000/svg" xmlns:xlink="http://www.w3.org/1999/xlink">
    <!-- Generator: Sketch 46.2 (44496) - http://www.bohemiancoding.com/sketch -->
    <title>弹框关闭</title>
    <desc>Created with Sketch.</desc>
    <defs></defs>
    <g id="Page-1" stroke="none" stroke-width="1" fill="none" fill-rule="evenodd">
        <g id="hover" transform="translate(-149.000000, -973.000000)" fill="#999999">
            <g id="弹框关闭" transform="translate(134.000000, 958.000000)">
                <g transform="translate(15.000000, 15.000000)">
                    <path d="M7.36396103,6.65685425 L1.35355339,0.646446609 C1.15829124,0.451184464 0.841708755,0.451184464 0.646446609,0.646446609 C0.451184464,0.841708755 0.451184464,1.15829124 0.646446609,1.35355339 L6.65685425,7.36396103 L0.646446609,13.3743687 C0.451184464,13.5696308 0.451184464,13.8862133 0.646446609,14.0814755 C0.841708755,14.2767376 1.15829124,14.2767376 1.35355339,14.0814755 L7.36396103,8.07106781 L13.3743687,14.0814755 C13.5696308,14.2767376 13.8862133,14.2767376 14.0814755,14.0814755 C14.2767376,13.8862133 14.2767376,13.5696308 14.0814755,13.3743687 L8.07106781,7.36396103 L14.0814755,1.35355339 C14.2767376,1.15829124 14.2767376,0.841708755 14.0814755,0.646446609 C13.8862133,0.451184464 13.5696308,0.451184464 13.3743687,0.646446609 L7.36396103,6.65685425 Z"></path>
                </g>
            </g>
        </g>
    </g>
</svg>