<?xml version="1.0" encoding="UTF-8"?>
<svg width="16px" height="17px" viewBox="0 0 16 17" version="1.1" xmlns="http://www.w3.org/2000/svg" xmlns:xlink="http://www.w3.org/1999/xlink">
    <!-- Generator: Sketch 46.2 (44496) - http://www.bohemiancoding.com/sketch -->
    <title>编辑-hover</title>
    <desc>Created with Sketch.</desc>
    <defs></defs>
    <g id="Page-1" stroke="none" stroke-width="1" fill="none" fill-rule="evenodd">
        <g id="hover" transform="translate(-288.000000, -45.000000)" fill-rule="nonzero" fill="#3F4C7D">
            <g id="编辑-hover" transform="translate(288.000000, 45.000000)">
                <path d="M13.9062533,16.0259139 L2.42673609,16.0259139 C1.83250178,16.0259139 1.21397396,15.7712509 0.745827221,15.3152956 C0.277699414,14.8593404 0,14.2727248 0,13.6939655 L0,2.07254585 C0,1.47516032 0.289268643,0.922809683 0.797784614,0.536214048 C1.24373965,0.197161392 1.82820355,-1.31450406e-13 2.42675502,-1.31450406e-13 L8.65690886,-1.31450406e-13 C8.96941062,-1.31450406e-13 9.22274081,0.248890651 9.22274081,0.553254282 C9.22274081,0.857617912 8.96941062,1.10650856 8.65690886,1.10650856 L2.42673609,1.10650856 C1.81277161,1.10650856 1.13609468,1.48605944 1.13609468,2.07254587 L1.13609468,13.693984 C1.13609468,14.2982667 1.80631479,14.9194238 2.42673609,14.9194238 L13.9062532,14.9194238 C14.5084023,14.9194238 14.8639053,14.2919597 14.8639053,13.693984 L14.8639053,7.69956605 C14.8639053,7.39520243 15.1194509,7.14846946 15.4319527,7.14846946 C15.7444544,7.14846946 16,7.39520243 16,7.69956605 L16,13.693984 C16,14.276948 15.814684,14.8303683 15.4665846,15.2647282 C15.0696521,15.7600014 14.5196308,16.0259139 13.9062533,16.0259139 Z M7.71650837,9 C7.53314356,9 7.34975981,8.93003835 7.20985588,8.79011506 C6.93004804,8.51030633 6.93004804,8.05667243 7.20985588,7.7768637 L14.7768581,0.209856547 C15.0566659,-0.0699521823 15.5103363,-0.0699521823 15.7901441,0.209856547 C16.069952,0.489665276 16.069952,0.943299174 15.7901441,1.2231079 L8.22314193,8.79011506 C8.08323798,8.93003837 7.89985425,9 7.71650837,9 Z"></path>
            </g>
        </g>
    </g>
</svg>