<?xml version="1.0" encoding="UTF-8"?>
<svg width="10px" height="10px" viewBox="0 0 10 10" version="1.1" xmlns="http://www.w3.org/2000/svg" xmlns:xlink="http://www.w3.org/1999/xlink">
    <!-- Generator: Sketch 46.2 (44496) - http://www.bohemiancoding.com/sketch -->
    <title>箭头</title>
    <desc>Created with Sketch.</desc>
    <defs></defs>
    <g id="Page-1" stroke="none" stroke-width="1" fill="none" fill-rule="evenodd">
        <g id="hover" transform="translate(-129.000000, -89.000000)" fill-rule="nonzero" fill="#222222">
            <g id="箭头" transform="translate(134.000000, 94.000000) scale(-1, 1) translate(-134.000000, -94.000000) translate(122.000000, 82.000000)">
                <g id="返回" transform="translate(12.409091, 12.090909) scale(-1, 1) translate(-12.409091, -12.090909) translate(6.909091, 7.090909)">
                    <path d="M10.3169706,4.30398512 L2.55631049,4.30398512 L5.67770227,0.837334564 C5.76702608,0.738556928 5.81341619,0.60832041 5.80665271,0.475316578 C5.79988923,0.342312745 5.74052707,0.217453919 5.64164391,0.12824694 C5.43523632,-0.0566920601 5.11806284,-0.0395911468 4.93273659,0.166468808 L1.12966155,4.39034489 C1.03250286,4.49774759 0.986491723,4.6418939 1.00345729,4.78572478 C0.987231034,4.92418888 1.02851786,5.06896318 1.12966155,5.18128498 L4.93273659,9.40498076 C5.11801647,9.61113767 5.43527201,9.62824301 5.64164391,9.44320262 C5.74057009,9.35402139 5.79996326,9.22915531 5.80672749,9.09613679 C5.81349172,8.96311827 5.76707149,8.83287139 5.67770227,8.73411501 L2.59110681,5.30640748 L10.3169706,5.30640748 C10.5937819,5.30640748 10.8181818,5.08200759 10.8181818,4.8051963 C10.8181818,4.52838501 10.5937819,4.30398512 10.3169706,4.30398512 Z" id="箭头"></path>
                </g>
            </g>
        </g>
    </g>
</svg>